name C:\Users\u0101727\Documents\MyRepositories\upper-imu-dc\Results\main_tracking\Case_32\ABD01_angularVelocities_bodyFrame.mot
datacolumns 4
datarows 105
range 2.81000000 3.85000000
endheader 
time	radius_imu_x	radius_imu_y	radius_imu_z	
          2.81000000	          0.19424254	         -0.60964807	          0.12004802	
          2.82000000	          0.15578781	         -0.60223528	          0.06818205	
          2.83000000	          0.12870002	         -0.57122715	          0.04120963	
          2.84000000	          0.10893336	         -0.51484549	          0.03060314	
          2.85000000	          0.09371899	         -0.43463058	          0.02997109	
          2.86000000	          0.08148538	         -0.33905351	          0.03499150	
          2.87000000	          0.07162303	         -0.24129624	          0.04291537	
          2.88000000	          0.06421902	         -0.15681993	          0.05214318	
          2.89000000	          0.05976057	         -0.10037031	          0.06183659	
          2.90000000	          0.05878862	         -0.08270831	          0.07157004	
          2.91000000	          0.06153145	         -0.10750000	          0.08103422	
          2.92000000	          0.06762218	         -0.16941331	          0.08982225	
          2.93000000	          0.07604749	         -0.25485015	          0.09733976	
          2.94000000	          0.08540259	         -0.34597852	          0.10286098	
          2.95000000	          0.09431694	         -0.42641382	          0.10568009	
          2.96000000	          0.10175371	         -0.48511362	          0.10524357	
          2.97000000	          0.10700842	         -0.51657416	          0.10119163	
          2.98000000	          0.10954718	         -0.51908485	          0.09335300	
          2.99000000	          0.10894434	         -0.49397782	          0.08177158	
          3.00000000	          0.10496981	         -0.44621094	          0.06675508	
          3.01000000	          0.09767538	         -0.38443668	          0.04886681	
          3.02000000	          0.08737378	         -0.31959162	          0.02882905	
          3.03000000	          0.07452922	         -0.26273950	          0.00738412	
          3.04000000	          0.05962491	         -0.22323303	         -0.01482361	
          3.05000000	          0.04306207	         -0.20764564	         -0.03731506	
          3.06000000	          0.02510403	         -0.21931153	         -0.05979755	
          3.07000000	          0.00584226	         -0.25811221	         -0.08215696	
          3.08000000	         -0.01482463	         -0.32039975	         -0.10443860	
          3.09000000	         -0.03716120	         -0.39937256	         -0.12682395	
          3.10000000	         -0.06147066	         -0.48633074	         -0.14959725	
          3.11000000	         -0.08789310	         -0.57273590	         -0.17309411	
          3.12000000	         -0.11621014	         -0.65232637	         -0.19763807	
          3.13000000	         -0.14574124	         -0.72242142	         -0.22347860	
          3.14000000	         -0.17536912	         -0.78402763	         -0.25073961	
          3.15000000	         -0.20368855	         -0.84091212	         -0.27938209	
          3.16000000	         -0.22924625	         -0.89807875	         -0.30918307	
          3.17000000	         -0.25081704	         -0.96010102	         -0.33973503	
          3.18000000	         -0.26765011	         -1.02970416	         -0.37046774	
          3.19000000	         -0.27963371	         -1.10692317	         -0.40068750	
          3.20000000	         -0.28734746	         -1.18901301	         -0.42962437	
          3.21000000	         -0.29198258	         -1.27100718	         -0.45648676	
          3.22000000	         -0.29512915	         -1.34661303	         -0.48053277	
          3.23000000	         -0.29847260	         -1.40920841	         -0.50115956	
          3.24000000	         -0.30349009	         -1.45288867	         -0.51798703	
          3.25000000	         -0.31124727	         -1.47345774	         -0.53090082	
          3.26000000	         -0.32234899	         -1.46903255	         -0.54003674	
          3.27000000	         -0.33702547	         -1.43997957	         -0.54571843	
          3.28000000	         -0.35528150	         -1.38835491	         -0.54837156	
          3.29000000	         -0.37702482	         -1.31737360	         -0.54843283	
          3.30000000	         -0.40212230	         -1.23122431	         -0.54626860	
          3.31000000	         -0.43039229	         -1.13505439	         -0.54211412	
          3.32000000	         -0.46157667	         -1.03477319	         -0.53603686	
          3.33000000	         -0.49532858	         -0.93656153	         -0.52792194	
          3.34000000	         -0.53121985	         -0.84622642	         -0.51748761	
          3.35000000	         -0.56876414	         -0.76857665	         -0.50433779	
          3.36000000	         -0.60746530	         -0.70687941	         -0.48803949	
          3.37000000	         -0.64691262	         -0.66238306	         -0.46818602	
          3.38000000	         -0.68693226	         -0.63397443	         -0.44439383	
          3.39000000	         -0.72773664	         -0.61816411	         -0.41622001	
          3.40000000	         -0.76993974	         -0.60953935	         -0.38306649	
          3.41000000	         -0.81434249	         -0.60158626	         -0.34418148	
          3.42000000	         -0.86155640	         -0.58763702	         -0.29881510	
          3.43000000	         -0.91165490	         -0.56173289	         -0.24648825	
          3.44000000	         -0.96400669	         -0.51929827	         -0.18727175	
          3.45000000	         -1.01733243	         -0.45764322	         -0.12196417	
          3.46000000	         -1.06993276	         -0.37634845	         -0.05210098	
          3.47000000	         -1.11998467	         -0.27748354	          0.02018944	
          3.48000000	         -1.16579495	         -0.16551034	          0.09239880	
          3.49000000	         -1.20593243	         -0.04674129	          0.16182074	
          3.50000000	         -1.23921614	          0.07166422	          0.22563703	
          3.51000000	         -1.26459685	          0.18296880	          0.28091276	
          3.52000000	         -1.28101901	          0.28193715	          0.32458133	
          3.53000000	         -1.28735977	          0.36520442	          0.35351657	
          3.54000000	         -1.28256111	          0.42997401	          0.36487797	
          3.55000000	         -1.26576134	          0.47255469	          0.35649032	
          3.56000000	         -1.23644465	          0.48644508	          0.32735288	
          3.57000000	         -1.19460957	          0.47023665	          0.27658540	
          3.58000000	         -1.14060552	          0.43156615	          0.20402780	
          3.59000000	         -1.07492160	          0.37405079	          0.11057920	
          3.60000000	         -0.99846958	          0.29058200	         -0.00129160	
          3.61000000	         -0.91271923	          0.17232818	         -0.12689244	
          3.62000000	         -0.81960987	          0.03509986	         -0.26261504	
          3.63000000	         -0.72207847	         -0.07345694	         -0.41142149	
          3.64000000	         -0.62218542	         -0.27537877	         -0.55596984	
          3.65000000	         -0.52801332	         -0.54333365	         -0.69328392	
          3.66000000	         -0.44355415	         -0.79042784	         -0.82529270	
          3.67000000	         -0.37201308	         -1.04241197	         -0.94662419	
          3.68000000	         -0.31502609	         -1.26986597	         -1.05834727	
          3.69000000	         -0.27340439	         -1.46838640	         -1.15877589	
          3.70000000	         -0.24702422	         -1.63340723	         -1.24711946	
          3.71000000	         -0.23470618	         -1.76103354	         -1.32319360	
          3.72000000	         -0.23460210	         -1.85246657	         -1.38679364	
          3.73000000	         -0.24451394	         -1.91235741	         -1.43783748	
          3.74000000	         -0.26222641	         -1.94706990	         -1.47646355	
          3.75000000	         -0.28572503	         -1.96352511	         -1.50306142	
          3.76000000	         -0.31334212	         -1.96844091	         -1.51823127	
          3.77000000	         -0.34381561	         -1.96712839	         -1.52273204	
          3.78000000	         -0.37623545	         -1.96230338	         -1.51742758	
          3.79000000	         -0.40991765	         -1.95366977	         -1.50324306	
          3.80000000	         -0.44426084	         -1.93880637	         -1.48116348	
          3.81000000	         -0.47865479	         -1.91493322	         -1.45227174	
          3.82000000	         -0.51247773	         -1.88050313	         -1.41778930	
          3.83000000	         -0.54516228	         -1.83590190	         -1.37906892	
          3.84000000	         -0.57627108	         -1.78319637	         -1.33752159	
          3.85000000	         -0.60553659	         -1.72532581	         -1.29450423	
